<svg width="65" height="65" viewBox="0 0 65 65" fill="none" xmlns="http://www.w3.org/2000/svg">
<g id="book 1" clip-path="url(#clip0_3_63)">
<path id="Vector" d="M11.5527 65H13.457V11.4258H9.64844C8.25493 11.4258 6.96457 11.0226 5.83984 10.3665V59.1602C5.83984 62.3102 8.40271 65 11.5527 65Z" fill="white"/>
<path id="Vector_2" d="M47.7344 25.0068V11.4258H40.1172V25.0068L43.9258 22.4667L47.7344 25.0068Z" fill="white"/>
<path id="Vector_3" d="M17.2656 11.4258V65H59.1602V11.4258H51.543V32.1221L43.9258 27.045L36.3086 32.1221V11.4258H17.2656Z" fill="white"/>
<path id="Vector_4" d="M9.64844 7.61719H55.3516V0H9.64844C7.54478 0 5.83984 1.70494 5.83984 3.80859C5.83984 5.91225 7.54478 7.61719 9.64844 7.61719Z" fill="white"/>
</g>
<defs>
<clipPath id="clip0_3_63">
<rect width="65" height="65" fill="white"/>
</clipPath>
</defs>
</svg>
