<svg width="74" height="74" viewBox="0 0 74 74" fill="none" xmlns="http://www.w3.org/2000/svg">
<g id="business-card 1" clip-path="url(#clip0_4_131)">
<path id="Vector" d="M59.3224 43.3133C58.6098 42.0039 57.4261 41.05 55.988 40.625C54.5499 40.2016 53.0396 40.3605 51.7316 41.0716L48.0475 43.0763C47.9839 42.9346 47.916 42.7944 47.8422 42.6571C46.368 39.9472 42.9629 38.9412 40.2529 40.4169L33.9672 43.8351C32.1274 43.2425 30.286 42.6499 28.4462 42.0573C25.9559 41.2552 23.4671 40.453 20.9782 39.6523C16.5874 38.2359 12.3006 38.6363 8.23491 40.8433L-2.68154 46.7878L-3.91439 44.6488C-4.55322 43.5518 -5.96818 43.1717 -7.07529 43.8033L-12.8406 47.126C-13.3754 47.4353 -13.7584 47.934 -13.9188 48.5309C-14.0807 49.1293 -13.9983 49.7536 -13.6905 50.2884L-0.721695 72.8006C-0.415289 73.3368 0.0818977 73.7212 0.680258 73.8831C0.882601 73.938 1.08639 73.9641 1.29018 73.9641C1.69053 73.9641 2.0851 73.86 2.4392 73.6548L8.20889 70.3349C9.30877 69.6989 9.69178 68.2825 9.05873 67.1725L7.87647 65.1216L8.52397 64.7704C10.9637 63.4422 13.5421 63.2008 16.1885 64.0521L21.7731 65.8501C23.0479 66.2605 24.3097 66.4658 25.5555 66.4658C27.5024 66.4658 29.4058 65.9643 31.2472 64.9627L57.0821 50.9027C59.7921 49.4299 60.7966 46.0247 59.3224 43.3133ZM41.3571 42.4476C42.9484 41.5818 44.9473 42.1715 45.8145 43.7671C45.8896 43.903 45.9503 44.0446 46.0038 44.1906L39.6517 47.6464C39.1126 46.4294 38.1514 45.4293 36.9417 44.8497L41.3571 42.4476ZM1.2844 71.6516L-11.6873 49.135L-11.6858 49.1278L-5.92627 45.8079H-5.92482C-5.92048 45.8079 -5.91326 45.8094 -5.9147 45.8065L-4.14709 48.8763C-4.14419 48.8835 -4.1413 48.8908 -4.13697 48.8966C-4.12685 48.9153 -4.11529 48.9327 -4.10373 48.95L7.05697 68.3346L1.2844 71.6516ZM57.5533 46.9165C57.3047 47.7605 56.7439 48.4557 55.9765 48.8734L30.1415 62.9349C27.7018 64.2631 25.1248 64.5045 22.4813 63.6532L16.8967 61.8538C13.6245 60.8016 10.4361 61.0993 7.41975 62.7412L6.72311 63.1199L-1.52963 48.791L9.33768 42.8739C12.8238 40.9806 16.5021 40.6366 20.2686 41.8521C22.7574 42.6528 25.2477 43.455 27.7365 44.2571C30.3395 45.0954 32.9425 45.9351 35.5455 46.7719C36.7495 47.1607 37.6311 48.2288 37.7944 49.4949C37.7944 49.4978 37.7959 49.4993 37.7959 49.5021C37.8551 49.9733 37.8118 50.4503 37.6644 50.9055C37.1079 52.6298 35.2536 53.5808 33.5293 53.0244C29.3032 51.6672 25.0786 50.3043 20.8525 48.9428L20.5634 48.8489C19.9564 48.6537 19.3046 48.9876 19.1094 49.5946C18.9143 50.2017 19.2467 50.8535 19.8552 51.0486L20.1443 51.1426C24.3704 52.5041 28.5965 53.867 32.8211 55.2241C33.3891 55.4077 33.9658 55.4944 34.5338 55.4944C36.8969 55.4944 39.0981 53.9826 39.8627 51.6152C40.0303 51.0934 40.1199 50.5543 40.1301 50.0152L47.8769 45.8007C47.8899 45.7935 47.903 45.7877 47.916 45.779L52.8372 43.1023C53.6033 42.6846 54.4892 42.5935 55.3347 42.8421C56.1803 43.0922 56.8755 43.6515 57.2917 44.4175C57.7108 45.185 57.8033 46.0724 57.5533 46.9165ZM16.9574 34.5981H51.2156C53.3532 34.5981 55.0919 32.8594 55.0919 30.7218V11.8763C55.0919 9.73871 53.3532 8 51.2156 8H16.9574C14.8226 8 13.0854 9.73871 13.0854 11.8763V30.7218C13.0854 32.8594 14.8226 34.5981 16.9574 34.5981ZM15.3964 11.8763C15.3964 11.0135 16.096 10.3111 16.9574 10.3111H51.2156C52.0785 10.3111 52.7809 11.0135 52.7809 11.8763V30.7218C52.7809 31.5846 52.0785 32.287 51.2156 32.287H16.9574C16.096 32.287 15.3964 31.5846 15.3964 30.7218V11.8763ZM21.0259 29.9687H33.0827C34.5381 29.9687 35.7219 28.785 35.7219 27.3311V15.2728C35.7219 13.8174 34.5381 12.6351 33.0827 12.6351H21.0259C19.5705 12.6351 18.3882 13.8188 18.3882 15.2728V27.3296C18.3868 28.785 19.5705 29.9687 21.0259 29.9687ZM26.0527 19.4035C26.0527 18.8529 26.5008 18.4034 27.0529 18.4034C27.605 18.4034 28.053 18.8514 28.053 19.4035C28.053 19.9556 27.605 20.4037 27.0529 20.4037C26.5109 20.4022 26.0527 19.9441 26.0527 19.4035ZM25.7449 23.8609H28.3623C29.4087 23.8609 30.2586 24.7121 30.2586 25.7571V27.6577H23.8428V25.7571C23.8443 24.7107 24.697 23.8609 25.7449 23.8609ZM20.6978 15.2728C20.6978 15.095 20.8481 14.9447 21.0259 14.9447H33.0827C33.2605 14.9447 33.4108 15.095 33.4108 15.2728V27.3296C33.4108 27.5074 33.2605 27.6577 33.0827 27.6577H32.5711V25.7571C32.5711 23.8103 31.2414 22.1684 29.442 21.69C30.0114 21.0945 30.3626 20.2895 30.3626 19.4021C30.3626 17.5766 28.8769 16.0923 27.0529 16.0923C25.2289 16.0923 23.7431 17.5766 23.7431 19.4021C23.7431 20.2895 24.0943 21.096 24.6652 21.69C22.8658 22.1684 21.5347 23.8103 21.5347 25.7557V27.6562H21.0274C20.8496 27.6562 20.6993 27.5059 20.6993 27.3282V15.2728H20.6978ZM38.757 15.8509C38.757 15.2121 39.2744 14.6961 39.9118 14.6961H48.6299C49.2688 14.6961 49.7847 15.2136 49.7847 15.8509C49.7847 16.4883 49.2673 17.0057 48.6299 17.0057H39.9118C39.2744 17.0057 38.757 16.4883 38.757 15.8509ZM38.757 21.2998C38.757 20.6609 39.2744 20.145 39.9118 20.145H48.6299C49.2688 20.145 49.7847 20.6624 49.7847 21.2998C49.7847 21.9371 49.2673 22.4546 48.6299 22.4546H39.9118C39.2744 22.4546 38.757 21.9386 38.757 21.2998ZM38.757 26.7486C38.757 26.1098 39.2744 25.5938 39.9118 25.5938H48.6299C49.2688 25.5938 49.7847 26.1112 49.7847 26.7486C49.7847 27.386 49.2673 27.9034 48.6299 27.9034H39.9118C39.2744 27.9034 38.757 27.3874 38.757 26.7486Z" fill="white"/>
</g>
<defs>
<clipPath id="clip0_4_131">
<rect width="74" height="74" fill="white"/>
</clipPath>
</defs>
</svg>
