<svg width="55" height="55" viewBox="0 0 55 55" fill="none" xmlns="http://www.w3.org/2000/svg">
<g id="g1515">
<g id="g1517">
<g id="Clip path group">
<mask id="mask0_4_100" style="mask-type:luminance" maskUnits="userSpaceOnUse" x="0" y="0" width="55" height="55">
<g id="clipPath1523">
<path id="path1521" d="M0 -7.62939e-06H55V55H0V-7.62939e-06Z" fill="white"/>
</g>
</mask>
<g mask="url(#mask0_4_100)">
<g id="g1519">
<g id="g1525">
<path id="path1527" d="M44.6641 49.7353V54.1944" stroke="white" stroke-width="3" stroke-miterlimit="10" stroke-linecap="round" stroke-linejoin="round"/>
</g>
</g>
</g>
</g>
</g>
<g id="g1529">
<path id="path1531" d="M5.76758 11.495V4.45961H10.3356" stroke="white" stroke-width="3" stroke-miterlimit="10" stroke-linecap="round" stroke-linejoin="round"/>
</g>
<g id="g1533">
<g id="Clip path group_2">
<mask id="mask1_4_100" style="mask-type:luminance" maskUnits="userSpaceOnUse" x="0" y="0" width="55" height="55">
<g id="clipPath1539">
<path id="path1537" d="M0 -7.62939e-06H55V55H0V-7.62939e-06Z" fill="white"/>
</g>
</mask>
<g mask="url(#mask1_4_100)">
<g id="g1535">
<g id="g1541">
<path id="path1543" d="M44.6627 54.1943H5.76758V16.0655" stroke="white" stroke-width="3" stroke-miterlimit="10" stroke-linecap="round" stroke-linejoin="round"/>
</g>
<g id="g1545">
<path id="path1547" d="M49.231 50.5403L17.2365 44.9017C13.246 44.1984 10.3359 40.7232 10.3359 36.661V0.805619H49.231V50.5403Z" stroke="white" stroke-width="3" stroke-miterlimit="10" stroke-linecap="round" stroke-linejoin="round"/>
</g>
<g id="g1549">
<path id="path1551" d="M49.231 50.5403L31.9941 40.0372" stroke="white" stroke-width="3" stroke-miterlimit="10" stroke-linecap="round" stroke-linejoin="round"/>
</g>
<g id="g1553">
<path id="path1555" d="M28.3357 37.8077L24.5155 35.4799C24.5155 35.4799 24.8448 44.9094 17.4414 44.9094" stroke="white" stroke-width="3" stroke-miterlimit="10" stroke-linecap="round" stroke-linejoin="round"/>
</g>
<g id="g1557">
<path id="path1559" d="M17.4883 8.96661H42.081" stroke="white" stroke-width="3" stroke-miterlimit="10" stroke-linecap="round" stroke-linejoin="round"/>
</g>
<g id="g1561">
<path id="path1563" d="M17.4883 13.9341H42.081" stroke="white" stroke-width="3" stroke-miterlimit="10" stroke-linecap="round" stroke-linejoin="round"/>
</g>
<g id="g1565">
<path id="path1567" d="M17.4883 18.9017H42.081" stroke="white" stroke-width="3" stroke-miterlimit="10" stroke-linecap="round" stroke-linejoin="round"/>
</g>
<g id="g1569">
<path id="path1571" d="M17.4883 23.8692H42.081" stroke="white" stroke-width="3" stroke-miterlimit="10" stroke-linecap="round" stroke-linejoin="round"/>
</g>
</g>
</g>
</g>
</g>
</g>
</svg>
