<svg width="65" height="65" viewBox="0 0 65 65" fill="none" xmlns="http://www.w3.org/2000/svg">
<g id="home (2) 1" clip-path="url(#clip0_2_43)">
<path id="Vector" d="M63.3751 28.145C63.3731 28.1435 63.3716 28.1415 63.3701 28.14L36.8552 1.62609C35.725 0.495416 34.2224 -0.126953 32.6241 -0.126953C31.0258 -0.126953 29.5232 0.495416 28.3925 1.62609L1.89147 28.1266C1.88255 28.1355 1.87312 28.145 1.86469 28.1539C-0.456172 30.4882 -0.452205 34.2754 1.8761 36.6037C2.93983 37.668 4.34425 38.2839 5.84637 38.3488C5.90786 38.3548 5.96936 38.3578 6.03134 38.3578H7.08764V57.8699C7.08764 61.7316 10.2297 64.8732 14.0914 64.8732H24.4649C25.5167 64.8732 26.3692 64.0202 26.3692 62.9689V47.671C26.3692 45.909 27.8029 44.4758 29.5648 44.4758H35.6834C37.4454 44.4758 38.8785 45.909 38.8785 47.671V62.9689C38.8785 64.0202 39.731 64.8732 40.7828 64.8732H51.1563C55.0185 64.8732 58.1601 61.7316 58.1601 57.8699V38.3578H59.14C60.7378 38.3578 62.2404 37.7354 63.3716 36.6042C65.7024 34.2725 65.7034 30.4782 63.3751 28.145ZM60.6783 33.9114C60.2672 34.3225 59.7207 34.5492 59.14 34.5492H56.2558C55.204 34.5492 54.3515 35.4016 54.3515 36.4535V57.8699C54.3515 59.6314 52.9183 61.0646 51.1563 61.0646H42.6871V47.671C42.6871 43.8093 39.5455 40.6672 35.6834 40.6672H29.5648C25.7027 40.6672 22.5606 43.8093 22.5606 47.671V61.0646H14.0914C12.3299 61.0646 10.8962 59.6314 10.8962 57.8699V36.4535C10.8962 35.4016 10.0438 34.5492 8.99194 34.5492H6.15731C6.12755 34.5472 6.09829 34.5457 6.06804 34.5452C5.50072 34.5353 4.96861 34.3101 4.56989 33.9109C3.72188 33.0629 3.72188 31.6828 4.56989 30.8343C4.57039 30.8343 4.57039 30.8338 4.57088 30.8333L4.57237 30.8318L31.0863 4.31889C31.4969 3.90778 32.0429 3.68165 32.6241 3.68165C33.2048 3.68165 33.7508 3.90778 34.1619 4.31889L60.6699 30.8264C60.6739 30.8303 60.6783 30.8343 60.6823 30.8383C61.5258 31.6878 61.5243 33.0649 60.6783 33.9114Z" fill="white"/>
</g>
<defs>
<clipPath id="clip0_2_43">
<rect width="65" height="65" fill="white"/>
</clipPath>
</defs>
</svg>
